<svg xmlns="http://www.w3.org/2000/svg" width="24" height="24" viewBox="0 0 24 24"><g fill-rule="evenodd"><path fill="#FBBB00" d="M7.458 13.43l-.543 2.027-1.985.042A7.767 7.767 0 0 1 4 11.802c0-1.294.315-2.514.872-3.588l1.768.324.774 1.756a4.637 4.637 0 0 0 .044 3.135"/><path fill="#518EF8" d="M19.467 10.344a7.81 7.81 0 0 1-.034 3.087 7.8 7.8 0 0 1-2.747 4.455l-2.227-.114-.315-1.967a4.65 4.65 0 0 0 2-2.374h-4.17v-3.087h7.493z"/><path fill="#28B446" d="M16.685 17.885a7.769 7.769 0 0 1-4.883 1.718A7.8 7.8 0 0 1 4.93 15.5l2.528-2.07a4.639 4.639 0 0 0 6.686 2.376l2.541 2.08z"/><path fill="#F14336" d="M16.781 5.796l-2.527 2.07a4.64 4.64 0 0 0-6.84 2.43L4.873 8.212A7.8 7.8 0 0 1 11.801 4c1.893 0 3.628.674 4.98 1.796"/></g></svg>