<svg xmlns="http://www.w3.org/2000/svg" width="24" height="24" viewBox="0 0 24 24"><path fill-rule="evenodd" fill="#EB7D23" d="M7.062 12.46c.149 0 .27.14.27.312s-.121.311-.27.311H5.469c-.149 0-.27-.14-.27-.311 0-.172.121-.311.27-.311h1.593zm4.266 0c.149 0 .27.14.27.312s-.121.311-.27.311H9.735c-.15 0-.27-.14-.27-.311 0-.172.12-.311.27-.311h1.593zm3.199 0c.149 0 .27.14.27.312s-.121.311-.27.311h-1.593c-.149 0-.27-.14-.27-.311 0-.172.121-.311.27-.311h1.593zm4.265 0c.15 0 .27.14.27.312s-.12.311-.27.311H17.2c-.15 0-.27-.14-.27-.311 0-.172.12-.311.27-.311h1.592zm-11.73 2.134c.149 0 .27.139.27.31 0 .173-.121.312-.27.312H5.469c-.149 0-.27-.14-.27-.311 0-.172.121-.311.27-.311h1.593zm4.266 0c.149 0 .27.139.27.31 0 .173-.121.312-.27.312H9.735c-.15 0-.27-.14-.27-.311 0-.172.12-.311.27-.311h1.593zm3.199 0c.149 0 .27.139.27.31 0 .173-.121.312-.27.312h-1.593c-.149 0-.27-.14-.27-.311 0-.172.121-.311.27-.311h1.593zm4.265 0c.15 0 .27.139.27.31 0 .173-.12.312-.27.312H17.2c-.15 0-.27-.14-.27-.311 0-.172.12-.311.27-.311h1.592zm-11.73 3.199c.149 0 .27.14.27.311 0 .172-.121.311-.27.311H5.469c-.149 0-.27-.14-.27-.311 0-.172.121-.311.27-.311h1.593zm4.266 0c.149 0 .27.14.27.311 0 .172-.121.311-.27.311H9.735c-.15 0-.27-.14-.27-.311 0-.172.12-.311.27-.311h1.593zm3.199 0c.149 0 .27.14.27.311 0 .172-.121.311-.27.311h-1.593c-.149 0-.27-.14-.27-.311 0-.172.121-.311.27-.311h1.593zm4.265 0c.15 0 .27.14.27.311 0 .172-.12.311-.27.311H17.2c-.15 0-.27-.14-.27-.311 0-.172.12-.311.27-.311h1.592zm1.626 2.645c.576 0 1.045-.456 1.045-1.018v-9.379H2.537v9.38c0 .56.469 1.017 1.044 1.017h16.837zM3.581 5.748c-.575 0-1.044.458-1.044 1.019v2.75h18.926v-2.75c0-.561-.469-1.018-1.045-1.018h-.809v.506a.805.805 0 0 1-.814.794h-.714a.806.806 0 0 1-.815-.794V5.75h-1.948v.506a.806.806 0 0 1-.815.794h-.714a.805.805 0 0 1-.815-.794V5.75h-1.948v.506a.806.806 0 0 1-.815.794h-.714a.806.806 0 0 1-.815-.794V5.75H6.734v.506a.806.806 0 0 1-.815.794h-.714a.805.805 0 0 1-.815-.794V5.75h-.809zm1.347-.954V6.255c0 .15.124.27.277.27h.714a.274.274 0 0 0 .277-.27v-.768-.693c0-.149-.124-.27-.277-.27h-.714a.274.274 0 0 0-.277.27zm4.292 0V6.255c0 .15.124.27.277.27h.714a.274.274 0 0 0 .277-.27V4.794c0-.149-.124-.27-.277-.27h-.714a.274.274 0 0 0-.277.27zm4.292 0V6.255c0 .15.124.27.277.27h.714a.274.274 0 0 0 .277-.27v-1.46c0-.15-.124-.27-.277-.27h-.714a.274.274 0 0 0-.277.27zm4.292 0V6.255c0 .15.124.27.277.27h.714a.274.274 0 0 0 .277-.27V4.794c0-.149-.124-.27-.277-.27h-.714a.274.274 0 0 0-.277.27zm2.614.43c.872 0 1.582.693 1.582 1.543V19.42c0 .85-.71 1.542-1.582 1.542H3.581C2.71 20.962 2 20.271 2 19.42V6.767c0-.85.71-1.542 1.581-1.542h.81v-.43c0-.439.365-.795.814-.795h.714c.449 0 .815.356.815.794v.43h1.948v-.43c0-.438.366-.794.815-.794h.714c.449 0 .815.356.815.794v.43h1.948v-.43c0-.438.366-.794.815-.794h.714c.449 0 .814.356.814.794v.43h1.95v-.43c0-.438.365-.794.814-.794h.714c.449 0 .814.356.814.794v.43h.81z"/></svg>